<svg width="60" height="60" viewBox="0 0 60 60" fill="none" xmlns="http://www.w3.org/2000/svg">
<path fill-rule="evenodd" clip-rule="evenodd" d="M30 60C46.5685 60 60 46.5685 60 30C60 13.4315 46.5685 0 30 0C13.4315 0 0 13.4315 0 30C0 33.056 0.456954 36.0054 1.30626 38.7833C1.523 38.8224 1.87337 38.9115 2.38385 39.0612L1.58655 26.5161C1.58655 26.2861 1.97443 26.1755 2.3298 26.0742C2.52484 26.0186 2.71009 25.9658 2.81604 25.8975C3.10538 25.7146 9.06366 27.8902 9.38193 28.0346L17.0012 31.4811C18.9687 30.2392 21.322 29.7386 23.6367 30.0756L30.5615 21.6326C30.6483 14.8937 36.1458 9.46397 42.9066 9.45435C49.2239 9.52174 54.4609 14.3353 55.0589 20.6025C55.6954 27.38 50.7188 33.3873 43.929 34.0323L32.394 42.2635C31.6899 45.8736 29.1052 48.8291 25.6138 50.0036C20.2611 51.8135 14.4454 48.9447 12.6418 43.592L8.62965 42.2635C8.3322 42.169 2.87258 39.8977 1.39342 39.0635C5.23575 51.202 16.5904 60 30 60ZM49.08 21.7769C49.08 25.1797 46.3163 27.9382 42.9073 27.9382C39.4982 27.9382 36.7345 25.1797 36.7345 21.7769C36.7345 18.3741 39.4982 15.6155 42.9073 15.6155C46.3163 15.6155 49.08 18.3741 49.08 21.7769ZM47.0267 21.7769C47.0267 24.0472 45.1829 25.8877 42.9084 25.8877C40.6339 25.8877 38.7901 24.0472 38.7901 21.7769C38.7901 19.5066 40.6339 17.6661 42.9084 17.6661C45.1829 17.6661 47.0267 19.5066 47.0267 21.7769ZM19.6551 45.8063C20.4846 46.2106 21.4008 46.4224 22.3267 46.4224C23.0307 46.4224 23.7154 46.3069 24.3906 46.0854C25.9433 45.5463 27.2067 44.42 27.9204 42.947C29.4057 39.876 28.1133 36.1984 25.0464 34.7159C24.5256 34.4655 23.918 34.6773 23.6672 35.1876C23.4165 35.7074 23.6286 36.3139 24.1398 36.5643C24.2073 36.5931 24.2748 36.622 24.3423 36.6605C26.3677 37.7002 27.1489 40.1744 26.1073 42.1961C25.0657 44.2178 22.5774 44.9976 20.5617 43.9579C20.0409 43.7076 19.4333 43.9193 19.1826 44.4296C18.9318 44.9494 19.144 45.556 19.6551 45.8063Z" fill="#FFB548"/>
</svg>
