<svg width="36" height="28" viewBox="0 0 36 28" fill="none" xmlns="http://www.w3.org/2000/svg">
<path opacity="0.3" d="M36 3.31482C34.6519 3.8861 33.222 4.26115 31.758 4.42752C33.2807 3.55178 34.452 2.16782 35.0032 0.516355C33.5535 1.33972 31.9674 1.91982 30.3133 2.23157C28.9174 0.804781 26.9653 -0.00338225 24.923 1.06403e-05C20.8459 1.06403e-05 17.5368 3.16402 17.5368 7.06705C17.5368 7.62164 17.602 8.16217 17.7297 8.67829C11.5906 8.38308 6.14967 5.57055 2.50617 1.29384C1.86998 2.33642 1.5071 3.55178 1.5071 4.84736C1.5071 7.2983 2.81048 9.46193 4.79185 10.7296C3.61876 10.6952 2.47139 10.392 1.44601 9.84551V9.93563C1.44601 13.359 3.99214 16.2157 7.36922 16.8664C6.28158 17.1482 5.1412 17.1896 4.0344 16.9873C4.97467 19.7956 7.70316 21.8386 10.9337 21.8979C8.40642 23.7906 5.22226 24.9226 1.76112 24.9226C1.17258 24.9219 0.584573 24.8889 0 24.8237C3.26822 26.8284 7.15126 28 11.3219 28C24.9069 28 32.3345 17.2282 32.3345 7.88696C32.3345 7.58142 32.3345 7.27588 32.3115 6.97253C33.7568 5.97174 35.0049 4.73328 35.9977 3.31482H36Z" fill="white"/>
</svg>
