<svg width="40" height="36" viewBox="0 0 40 36" fill="none" xmlns="http://www.w3.org/2000/svg">
<path fill-rule="evenodd" clip-rule="evenodd" d="M40 25.6552V0H4.44444L0 4.55172V28.5517H11.1111V36H16L21.3333 30.6207H34.6667L40 25.6552ZM13.7778 25.2415H6.66672C6.17783 25.2415 5.77783 24.8691 5.77783 24.414V4.13809C5.77783 3.68292 6.17783 3.3105 6.66672 3.3105H35.1112C35.6001 3.3105 36.0001 3.68292 36.0001 4.13809V19.8622C36.0001 20.0898 35.9112 20.2967 35.7445 20.4519L30.8556 25.0036C30.6889 25.1588 30.4556 25.2415 30.2223 25.2415H22.0556L15.1667 29.6484C15.0223 29.7415 14.8445 29.7933 14.6667 29.7933C14.5223 29.7933 14.3889 29.7622 14.2556 29.7002C13.9556 29.5553 13.7778 29.276 13.7778 28.9657V25.2415Z" fill="white"/>
<path d="M27.1109 18.0003V9.72443H23.5554V18.0003H27.1109ZM18.2221 18.0003V9.72443H14.6665V18.0003H18.2221Z" fill="white"/>
</svg>
