<svg width="42" height="33" viewBox="0 0 42 33" fill="none" xmlns="http://www.w3.org/2000/svg">
<path fill-rule="evenodd" clip-rule="evenodd" d="M42 3.79C40.4546 4.434 38.7932 4.864 37.0519 5.06C38.8312 4.06 40.1967 2.476 40.8404 0.592C39.1731 1.516 37.3298 2.188 35.3665 2.552C33.7971 0.98 31.556 0 29.0789 0C24.3207 0 20.4602 3.618 20.4602 8.078C20.4602 8.712 20.5362 9.33 20.6841 9.92C13.5228 9.582 7.17327 6.366 2.92289 1.48C2.18117 2.674 1.75733 4.06 1.75733 5.542C1.75733 8.342 3.27875 10.818 5.58987 12.266C4.17841 12.222 2.85091 11.86 1.68736 11.254C1.68736 11.29 1.68736 11.32 1.68736 11.358C1.68736 15.272 4.65623 18.536 8.59873 19.278C7.877 19.462 7.11329 19.558 6.32959 19.558C5.7738 19.558 5.23401 19.51 4.70821 19.418C5.80379 22.624 8.98658 24.962 12.7571 25.028C9.80826 27.194 6.09368 28.484 2.05522 28.484C1.35948 28.484 0.673743 28.446 0 28.372C3.81255 30.662 8.34282 32.002 13.209 32.002C29.0589 32.002 37.7256 19.69 37.7256 9.016C37.7256 8.664 37.7156 8.318 37.6996 7.97C39.383 6.83 40.8444 5.408 42 3.79Z" fill="white"/>
</svg>
